<svg width="60" height="60" viewBox="0 0 60 60" fill="none" xmlns="http://www.w3.org/2000/svg">
<rect width="60" height="60" rx="10" fill="white"/>
<rect width="60" height="60" rx="10" fill="url(#paint0_linear_2017_134)"/>
<rect width="60" height="60" rx="10" fill="url(#paint1_linear_2017_134)"/>
<path d="M31.6448 14.002C32.8123 13.9975 33.9799 14.0092 35.147 14.0372L35.4574 14.0484C35.8158 14.0612 36.1694 14.0772 36.5966 14.0964C38.2989 14.1764 39.4604 14.4452 40.4796 14.8403C41.5355 15.2467 42.4251 15.7971 43.3146 16.6867C44.128 17.486 44.7575 18.4529 45.1593 19.5202C45.5545 20.5393 45.8233 21.7025 45.9033 23.4048C45.9225 23.8304 45.9385 24.1856 45.9513 24.544L45.9609 24.8544C45.9893 26.0211 46.0016 27.1881 45.9977 28.3551L45.9993 29.5486V31.6446C46.0032 32.8121 45.991 33.9796 45.9625 35.1468L45.9529 35.4572C45.9401 35.8156 45.9241 36.1692 45.9049 36.5964C45.8249 38.2987 45.5529 39.4603 45.1593 40.4795C44.7588 41.5478 44.1291 42.5156 43.3146 43.3146C42.5146 44.1279 41.5472 44.7573 40.4796 45.1593C39.4604 45.5545 38.2989 45.8233 36.5966 45.9033C36.1694 45.9225 35.8158 45.9385 35.4574 45.9513L35.147 45.9609C33.9799 45.9893 32.8123 46.0016 31.6448 45.9977L30.4513 45.9993H28.357C27.1895 46.0032 26.0219 45.991 24.8548 45.9625L24.5444 45.9529C24.1646 45.9391 23.7849 45.9231 23.4052 45.9049C21.7029 45.8249 20.5414 45.5529 19.5206 45.1593C18.453 44.7583 17.4859 44.1287 16.6872 43.3146C15.8729 42.5151 15.2428 41.5475 14.8409 40.4795C14.4457 39.4603 14.1769 38.2987 14.0969 36.5964C14.0791 36.2168 14.0631 35.837 14.0489 35.4572L14.0409 35.1468C14.0114 33.9797 13.9981 32.8121 14.0009 31.6446V28.3551C13.9965 27.1881 14.0082 26.0211 14.0361 24.8544L14.0473 24.544C14.0601 24.1856 14.0761 23.8304 14.0953 23.4048C14.1753 21.7009 14.4441 20.5409 14.8393 19.5202C15.2415 18.4524 15.8728 17.4858 16.6888 16.6883C17.487 15.8735 18.4534 15.2428 19.5206 14.8403C20.5414 14.4452 21.7013 14.1764 23.4052 14.0964L24.5444 14.0484L24.8548 14.0404C26.0214 14.0109 27.1884 13.9976 28.3554 14.0004L31.6448 14.002ZM30.0001 22.0017C28.9402 21.9867 27.8878 22.1825 26.9042 22.5778C25.9206 22.973 25.0254 23.5598 24.2705 24.3041C23.5157 25.0484 22.9163 25.9352 22.5072 26.9131C22.0981 27.8911 21.8874 28.9406 21.8874 30.0006C21.8874 31.0607 22.0981 32.1102 22.5072 33.0881C22.9163 34.066 23.5157 34.9529 24.2705 35.6971C25.0254 36.4414 25.9206 37.0282 26.9042 37.4235C27.8878 37.8187 28.9402 38.0145 30.0001 37.9996C32.1217 37.9996 34.1565 37.1567 35.6567 35.6565C37.1569 34.1562 37.9997 32.1215 37.9997 29.9998C37.9997 27.8782 37.1569 25.8434 35.6567 24.3432C34.1565 22.8429 32.1217 22.0017 30.0001 22.0017ZM30.0001 25.2016C30.6377 25.1898 31.2712 25.3053 31.8637 25.5411C32.4562 25.777 32.9957 26.1285 33.4508 26.5752C33.9059 27.0219 34.2674 27.5548 34.5142 28.1428C34.761 28.7308 34.8882 29.3621 34.8883 29.9998C34.8884 30.6375 34.7614 31.2688 34.5148 31.8569C34.2682 32.445 33.9068 32.978 33.4519 33.4249C32.997 33.8717 32.4576 34.2235 31.8652 34.4595C31.2728 34.6956 30.6393 34.8112 30.0017 34.7997C28.7287 34.7997 27.5079 34.294 26.6078 33.3938C25.7076 32.4937 25.2019 31.2728 25.2019 29.9998C25.2019 28.7268 25.7076 27.506 26.6078 26.6058C27.5079 25.7057 28.7287 25.2 30.0017 25.2L30.0001 25.2016ZM38.3997 19.6018C37.8835 19.6224 37.3954 19.842 37.0375 20.2145C36.6796 20.587 36.4798 21.0835 36.4798 21.6001C36.4798 22.1167 36.6796 22.6132 37.0375 22.9857C37.3954 23.3582 37.8835 23.5778 38.3997 23.5984C38.9301 23.5984 39.4388 23.3877 39.8138 23.0127C40.1889 22.6376 40.3996 22.1289 40.3996 21.5985C40.3996 21.0681 40.1889 20.5594 39.8138 20.1843C39.4388 19.8093 38.9301 19.5986 38.3997 19.5986V19.6018Z" fill="white"/>
<defs>
<linearGradient id="paint0_linear_2017_134" x1="2.25623" y1="32.5404" x2="57.5152" y2="33.608" gradientUnits="userSpaceOnUse">
<stop stop-color="#EA2815"/>
<stop offset="1" stop-color="#D30B54"/>
</linearGradient>
<linearGradient id="paint1_linear_2017_134" x1="30" y1="0" x2="30" y2="60" gradientUnits="userSpaceOnUse">
<stop stop-color="#EB4016"/>
<stop offset="1" stop-color="#9D2406"/>
</linearGradient>
</defs>
</svg>
