<svg width="112" height="112" viewBox="0 0 112 112" fill="none" xmlns="http://www.w3.org/2000/svg">
<g filter="url(#filter0_di_2016_44)">
<path d="M75 38.5V73.5C75 74.4283 74.6265 75.3185 73.9616 75.9749C73.2967 76.6313 72.3949 77 71.4545 77H62.5909C61.6506 77 60.7488 76.6313 60.0839 75.9749C59.419 75.3185 59.0455 74.4283 59.0455 73.5V38.5C59.0455 37.5717 59.419 36.6815 60.0839 36.0251C60.7488 35.3687 61.6506 35 62.5909 35H71.4545C72.3949 35 73.2967 35.3687 73.9616 36.0251C74.6265 36.6815 75 37.5717 75 38.5ZM48.4091 35H39.5455C38.6051 35 37.7033 35.3687 37.0384 36.0251C36.3735 36.6815 36 37.5717 36 38.5V73.5C36 74.4283 36.3735 75.3185 37.0384 75.9749C37.7033 76.6313 38.6051 77 39.5455 77H48.4091C49.3494 77 50.2512 76.6313 50.9161 75.9749C51.581 75.3185 51.9545 74.4283 51.9545 73.5V38.5C51.9545 37.5717 51.581 36.6815 50.9161 36.0251C50.2512 35.3687 49.3494 35 48.4091 35Z" fill="white"/>
</g>
<defs>
<filter id="filter0_di_2016_44" x="21" y="20" width="69" height="72" filterUnits="userSpaceOnUse" color-interpolation-filters="sRGB">
<feFlood flood-opacity="0" result="BackgroundImageFix"/>
<feColorMatrix in="SourceAlpha" type="matrix" values="0 0 0 0 0 0 0 0 0 0 0 0 0 0 0 0 0 0 127 0" result="hardAlpha"/>
<feOffset/>
<feGaussianBlur stdDeviation="7.5"/>
<feComposite in2="hardAlpha" operator="out"/>
<feColorMatrix type="matrix" values="0 0 0 0 1 0 0 0 0 1 0 0 0 0 1 0 0 0 0.4 0"/>
<feBlend mode="normal" in2="BackgroundImageFix" result="effect1_dropShadow_2016_44"/>
<feBlend mode="normal" in="SourceGraphic" in2="effect1_dropShadow_2016_44" result="shape"/>
<feColorMatrix in="SourceAlpha" type="matrix" values="0 0 0 0 0 0 0 0 0 0 0 0 0 0 0 0 0 0 127 0" result="hardAlpha"/>
<feOffset dy="2"/>
<feGaussianBlur stdDeviation="5"/>
<feComposite in2="hardAlpha" operator="arithmetic" k2="-1" k3="1"/>
<feColorMatrix type="matrix" values="0 0 0 0 0.996078 0 0 0 0 0.647451 0 0 0 0 0 0 0 0 0.2 0"/>
<feBlend mode="normal" in2="shape" result="effect2_innerShadow_2016_44"/>
</filter>
</defs>
</svg>
