<svg width="40" height="40" viewBox="0 0 40 40" fill="none" xmlns="http://www.w3.org/2000/svg">
<path d="M36.2495 11.2249V28.7749C36.2472 29.2197 36.1257 29.6558 35.8975 30.0377C35.6694 30.4196 35.343 30.7333 34.9523 30.9462C34.5617 31.1591 34.1212 31.2633 33.6766 31.248C33.232 31.2327 32.7996 31.0985 32.4245 30.8593L19.9995 22.9468V28.7749C19.9972 29.2197 19.8757 29.6558 19.6475 30.0377C19.4194 30.4196 19.093 30.7333 18.7023 30.9462C18.3117 31.1591 17.8712 31.2633 17.4266 31.248C16.982 31.2327 16.5496 31.0985 16.1745 30.8593L2.39486 22.0843C2.04378 21.8614 1.75468 21.5535 1.55436 21.1892C1.35405 20.8248 1.24902 20.4157 1.24902 19.9999C1.24902 19.5841 1.35405 19.175 1.55436 18.8106C1.75468 18.4462 2.04378 18.1383 2.39486 17.9155L16.1745 9.14051C16.5495 8.90077 16.982 8.76609 17.4268 8.75054C17.8715 8.73499 18.3123 8.83913 18.7031 9.05209C19.0939 9.26505 19.4204 9.57902 19.6485 9.96122C19.8765 10.3434 19.9977 10.7798 19.9995 11.2249V17.053L32.4245 9.14051C32.7995 8.90077 33.232 8.76609 33.6768 8.75054C34.1215 8.73499 34.5623 8.83913 34.9531 9.05209C35.3439 9.26505 35.6704 9.57902 35.8985 9.96122C36.1265 10.3434 36.2477 10.7798 36.2495 11.2249Z" fill="#2C1B1B"/>
</svg>
