<svg width="102" height="162" viewBox="0 0 102 162" fill="none" xmlns="http://www.w3.org/2000/svg">
<path d="M101.052 80.7644C101.052 90.8376 101.052 100.903 101.052 110.976C101.057 123.196 96.5952 134.999 88.4994 144.18C80.4036 153.361 69.2284 159.291 57.0626 160.862C29.3014 164.559 3.56877 144.638 0.398198 116.971C0.149084 114.779 0.0236674 112.575 0.0225396 110.37C0.00751317 90.6929 0 71.0331 0 51.3909C0 25.8118 16.9648 5.52359 42.2541 0.778938C68.5503 -4.12289 95.5978 14.6836 100.106 41.071C100.657 44.3987 100.945 47.7643 100.97 51.1365C101.12 61.0301 101.052 70.9011 101.052 80.7644ZM6.76186 80.6374H7.06239C7.06239 92.1471 6.39371 103.709 7.19764 115.167C9.01583 140.903 34.5606 159.208 59.8501 153.513C69.6392 151.381 78.3986 145.969 84.6675 138.182C90.9361 130.395 94.3353 120.703 94.298 110.722C94.363 90.7202 94.363 70.7165 94.298 50.7102C94.2653 48.161 94.0293 45.6185 93.5917 43.1065C89.6324 18.9343 65.5001 2.61992 41.5178 7.86597C31.6807 9.9441 22.8593 15.3266 16.5318 23.1116C10.2042 30.8967 6.75498 40.6112 6.76186 50.6277C6.70177 60.6484 6.76186 70.6317 6.76186 80.6374Z" fill="white"/>
<path d="M57.3892 46.0701C57.3892 48.7569 57.4342 51.4435 57.3892 54.1377C57.3065 58.2013 54.3836 61.09 50.4243 61.0451C49.5218 61.0454 48.628 60.8655 47.7961 60.5164C46.9644 60.1672 46.211 59.6555 45.581 59.0117C44.9506 58.3679 44.4562 57.605 44.1266 56.7679C43.7973 55.9308 43.6393 55.0364 43.6625 54.1377C43.6125 48.6894 43.6125 43.2412 43.6625 37.7932C43.6999 33.6997 46.6151 30.7734 50.522 30.7734C54.429 30.7734 57.2838 33.7071 57.3892 37.7932C57.4266 40.5473 57.3965 43.3087 57.3892 46.0701Z" fill="white"/>
</svg>
