<svg width="60" height="60" viewBox="0 0 60 60" fill="none" xmlns="http://www.w3.org/2000/svg">
<rect width="60" height="60" rx="10" fill="url(#paint0_linear_2017_145)"/>
<path d="M25.3992 24.6153C26.9787 23.022 28.4015 22.3567 30.5186 22.3567C32.6357 22.3567 37.4601 23.1088 36.7886 30.8638C36.1171 38.618 31.3605 38.367 30.5186 38.367C27.3894 38.367 24.9027 37.0877 24.9027 33.8752C24.9027 29.4609 29.9506 29.2322 31.6411 29.2322C35.7688 29.2322 42.6068 30.5 42.6068 37.4638C42.6068 45.9463 32.7361 47 30.1741 47C24.0068 47 16 43.8381 16 29.9605C16 16.0828 26.3376 14 30.5186 14C34.6996 14 40.6053 14.6147 44 23.8371" fill="url(#paint1_linear_2017_145)"/>
<path d="M25.3992 24.6153C26.9787 23.022 28.4015 22.3567 30.5186 22.3567C32.6357 22.3567 37.4601 23.1088 36.7886 30.8638C36.1171 38.618 31.3605 38.367 30.5186 38.367C27.3894 38.367 24.9027 37.0877 24.9027 33.8752C24.9027 29.4609 29.9506 29.2322 31.6411 29.2322C35.7688 29.2322 42.6068 30.5 42.6068 37.4638C42.6068 45.9463 32.7361 47 30.1741 47C24.0068 47 16 43.8381 16 29.9605C16 16.0828 26.3376 14 30.5186 14C34.6996 14 40.6053 14.6147 44 23.8371" stroke="white" stroke-width="4" stroke-linecap="square" stroke-linejoin="round"/>
<defs>
<linearGradient id="paint0_linear_2017_145" x1="30" y1="0" x2="30" y2="60" gradientUnits="userSpaceOnUse">
<stop stop-color="#EB4016"/>
<stop offset="1" stop-color="#9D2406"/>
</linearGradient>
<linearGradient id="paint1_linear_2017_145" x1="30" y1="14" x2="30" y2="47" gradientUnits="userSpaceOnUse">
<stop stop-color="#EB4016"/>
<stop offset="1" stop-color="#9D2406"/>
</linearGradient>
</defs>
</svg>
