<svg width="312" height="99" viewBox="0 0 312 99" fill="none" xmlns="http://www.w3.org/2000/svg">
<path d="M19.5797 42.9215L24.385 49.1162L11.9956 58.7269L18.3884 66.9681L30.0035 57.9581L34.8088 64.1528L23.1937 73.1628L35.8076 89.4239L28.6173 95.0015L-3.90499e-05 58.1097L19.5797 42.9215ZM27.7549 32.2665L35.1141 27.9336L61.0049 71.9078L53.6458 76.2407L27.7549 32.2665ZM55.0989 40.7461L62.8029 37.0609L75.8821 64.4038L68.1781 68.0889L55.0989 40.7461ZM51.7102 32.2019C50.3831 31.6986 49.4175 30.8155 48.8134 29.5526C48.2093 28.2896 48.1378 27.0047 48.599 25.6977C49.0821 24.3286 49.9552 23.3419 51.2181 22.7378C52.4811 22.1337 53.7761 22.0832 55.1032 22.5865C56.4522 23.0276 57.4288 23.8796 58.0329 25.1425C58.6371 26.4054 58.6975 27.7215 58.2144 29.0907C57.7532 30.3976 56.8912 31.3532 55.6282 31.9573C54.3653 32.5614 53.0593 32.643 51.7102 32.2019ZM83.4307 61.4284L74.3432 32.5128L82.4903 29.9524L83.6656 33.692C84.9122 29.8761 87.4053 27.3805 91.145 26.2052C94.9292 25.0159 98.1492 25.3002 100.805 27.0581C102.906 28.4523 104.517 30.9301 105.636 34.4917L111.345 52.6558L103.197 55.2162L98.2445 39.4562C97.391 36.7405 96.2844 35.0093 94.9246 34.2626C93.6819 33.577 92.2592 33.4861 90.6565 33.9898C88.4305 34.6893 87.0268 36.0599 86.4455 38.1014C86.0194 39.7029 86.1841 41.7056 86.9396 44.1097L91.5778 58.868L83.4307 61.4284ZM129.803 25.8042L123.996 26.7285L127.616 49.4722L119.182 50.8146L115.562 28.0708L112.244 28.599L111.1 21.4095L114.418 20.8813L112.79 10.6501L121.223 9.30776L122.852 19.539L128.659 18.6147L129.803 25.8042ZM190.182 38.3641L189.297 48.9673C185.704 50.4937 181.792 51.0804 177.56 50.7272C170.77 50.1605 165.277 47.5245 161.08 42.8192C156.504 37.6139 154.511 31.4768 155.101 24.4081C155.73 16.8743 158.724 11.013 164.084 6.82432C168.797 3.09672 174.665 1.52597 181.687 2.11205C185.78 2.4536 189.514 3.72522 192.889 5.92691L192.004 16.53C189.272 12.7899 185.674 10.7335 181.21 10.3609C176.652 9.98053 172.798 11.2744 169.647 14.2426C166.546 17.1682 164.809 20.8633 164.437 25.3277C164.029 30.2108 165.286 34.2259 168.208 37.3731C171.133 40.4739 174.689 42.1989 178.874 42.5482C183.246 42.913 187.015 41.5184 190.182 38.3641ZM196.037 51.9158L203.711 22.5934L211.973 24.7556L210.821 29.1573C212.31 27.5211 213.883 26.4858 215.541 26.0512C217.12 25.5479 218.857 25.5444 220.753 26.0406C221.837 26.3242 222.952 26.8571 224.098 27.6394L220.994 35.0758C220.144 34.0817 218.952 33.3838 217.417 32.9821C215.024 32.3559 212.989 32.6674 211.312 33.9167C209.874 34.9875 208.765 37.0128 207.985 39.9924L204.299 54.078L196.037 51.9158ZM251.576 44.2841L253.19 40.7116L260.973 44.227L248.496 71.8499L240.713 68.3345L242.327 64.7621C238.898 66.7979 235.398 67.0089 231.825 65.3953C227.657 63.5128 224.898 60.5513 223.549 56.5108C222.241 52.4895 222.519 48.4162 224.383 44.2908C226.265 40.1229 229.116 37.2118 232.936 35.5574C236.756 33.903 240.686 33.9883 244.726 35.8132C248.724 37.6189 251.007 40.4426 251.576 44.2841ZM248.069 48.3071C247.296 46.1655 245.803 44.5952 243.592 43.5963C241.38 42.5974 239.215 42.5156 237.097 43.351C234.978 44.1864 233.42 45.7099 232.421 47.9214C231.422 50.133 231.3 52.3308 232.054 54.515C232.828 56.6567 234.32 58.227 236.532 59.2259C238.744 60.2248 240.909 60.3066 243.027 59.4711C245.164 58.5932 246.733 57.0485 247.732 54.8369C248.73 52.6254 248.843 50.4488 248.069 48.3071ZM282.042 65.7311L275.515 61.3872L262.755 80.5589L255.646 75.8271L268.406 56.6554L265.726 54.8713L269.759 48.8109L272.44 50.595L277.055 43.6606C279.796 39.5426 282.881 37.3076 286.311 36.9556C288.912 36.6689 291.456 37.3529 293.942 39.0078C295.419 39.9903 296.584 41.1867 297.44 42.5968L293.134 49.0651C292.668 47.7453 291.832 46.6846 290.628 45.883C289.501 45.1332 288.362 44.9916 287.21 45.4585C286.162 45.9381 284.94 47.2269 283.544 49.3247L279.549 55.3268L286.076 59.6707L282.042 65.7311ZM300.145 80.3355L295.63 76.5686L280.877 94.2525L274.319 88.7817L289.073 71.0978L286.492 68.9453L291.156 63.3553L293.736 65.5077L300.373 57.5527L306.93 63.0235L300.294 70.9786L304.809 74.7454L300.145 80.3355Z" fill="white"/>
</svg>
