<svg width="110" height="110" viewBox="0 0 110 110" fill="none" xmlns="http://www.w3.org/2000/svg">
<path d="M110 54.9999C110 85.3757 85.3757 110 54.9998 110C24.6243 110 0 85.3757 0 54.9999C0 24.6243 24.6243 0 54.9998 0C85.3757 0 110 24.6243 110 54.9999Z" fill="#1D1D1B"/>
<path d="M40.0881 20.8887C39.6161 21.1275 39.2992 21.6976 39.7417 22.571C40.1788 23.4347 40.8207 23.532 41.3177 23.2805C41.9251 22.9729 41.9747 22.3108 41.8968 21.8835L42.6591 21.8697C42.8751 23.2298 41.8036 23.8164 41.5827 23.9283C41.1306 24.157 40.5882 24.2805 40.0007 24.0922C39.5797 23.9583 39.1329 23.6611 38.8205 23.0437C38.513 22.4366 38.5309 21.9103 38.6692 21.4871C38.8603 20.9049 39.2663 20.5607 39.6775 20.3523C40.2099 20.0829 40.6251 20.1059 40.9757 20.2374L40.7874 19.866L41.3047 19.6043L41.9146 20.8089L41.3974 21.0708C41.1951 20.9209 40.6604 20.599 40.0881 20.8887Z" fill="white"/>
<path d="M45.794 18.6016L45.4036 22.2281L44.1596 22.6601L43.9512 22.0596L44.6845 21.8046L44.7183 21.507L42.8703 19.6176L42.4611 19.7596L42.2615 19.1858L43.957 18.5965L44.1567 19.1706L43.832 19.2833L44.8897 20.4406L45.007 18.8749L44.6351 19.0043L44.4359 18.4302L45.9666 17.8984L46.1657 18.4725L45.794 18.6016Z" fill="white"/>
<path d="M47.261 20.9235L47.7676 20.8192L48.4319 19.2757L47.2972 18.2001L46.8731 18.2875L46.7504 17.6924L48.5135 17.3299L48.6362 17.9245L48.2999 17.9937L48.9317 18.5813L49.2694 17.7941L48.9941 17.8508L48.8716 17.2558L50.3699 16.9475L50.4925 17.5425L50.0794 17.6273L49.4485 19.0836L50.654 20.2251L51.1496 20.123L51.2779 20.7453L49.4161 21.1285L49.288 20.5061L49.657 20.4301L48.9516 19.7658L48.5606 20.656L48.8915 20.5877L49.0197 21.2103L47.3889 21.546L47.261 20.9235Z" fill="white"/>
<path d="M53.8006 18.6688L53.2778 17.2568L52.9538 18.7289L53.8006 18.6688ZM51.442 20.0761L51.868 20.0459L52.5391 17.3315L52.0116 17.3689L51.9684 16.763L54.5661 16.5793L54.609 17.1852L54.1434 17.2182L55.1946 19.8105L55.5482 19.7855L55.5932 20.4193L53.8658 20.5417L53.8207 19.9078L54.2358 19.8784L53.9713 19.1644L52.8435 19.2442L52.6873 19.9878L53.1197 19.9575L53.1643 20.5912L51.4868 20.7098L51.442 20.0761Z" fill="white"/>
<path d="M57.3924 18.4367L57.5725 18.4466C57.8986 18.4647 58.3616 18.4509 58.3932 17.8834C58.4246 17.3159 57.9828 17.2517 57.6399 17.2329L57.4605 17.2229L57.3924 18.4367ZM57.7279 19.9038L57.6927 20.539L55.9112 20.4398L55.9463 19.8049L56.3626 19.8279L56.5104 17.1701L56.0947 17.1467L56.1283 16.54L57.9718 16.6426C59.1345 16.7071 59.4334 17.22 59.3931 17.939C59.3622 18.4898 59.155 19.1717 57.8349 19.0981L57.3572 19.0716L57.3125 19.8807L57.7279 19.9038Z" fill="white"/>
<path d="M63.7367 20.7584L63.6209 21.3834L61.9116 21.067L62.0276 20.442L62.4371 20.5178L62.8575 18.553L60.8333 20.8675L59.6495 20.6484L59.7695 19.9954L60.1791 20.0714L60.659 17.4825L60.2494 17.4067L60.3594 16.8092L62.0692 17.1257L61.9588 17.7231L61.5492 17.6474L61.1147 19.6838L63.1864 17.3323L64.3315 17.5443L64.2209 18.1418L63.8113 18.066L63.3271 20.6826L63.7367 20.7584Z" fill="white"/>
<path d="M66.1901 21.5439L66.5799 21.6723L65.9923 19.9744L67.5057 19.1756L67.0992 19.0421L67.2898 18.465L68.8231 18.9699L68.6325 19.5467L68.3227 19.4448L66.9572 20.1735L67.6268 22.017L68.0224 22.1472L67.8231 22.7507L65.9909 22.1476L66.1901 21.5439ZM64.2246 20.8965L64.6194 21.0268L65.4546 18.5002L65.0589 18.3703L65.2494 17.7931L66.9432 18.3506L66.7527 18.9277L66.3571 18.7976L65.5228 21.3238L65.9175 21.4541L65.7184 22.0578L64.0245 21.5003L64.2246 20.8965Z" fill="white"/>
<path d="M71.9477 24.0704L71.6663 24.641L70.1066 23.8715L70.3879 23.3008L70.7616 23.4851L71.7008 21.7079L69.122 23.386L68.0413 22.853L68.336 22.2573L68.7088 22.4417L69.8744 20.079L69.5007 19.895L69.7695 19.3495L71.3293 20.1191L71.0613 20.6643L70.6875 20.4799L69.7154 22.3229L72.349 20.6221L73.3944 21.1375L73.1257 21.6826L72.752 21.4984L71.5739 23.8862L71.9477 24.0704Z" fill="white"/>
<path d="M49.8993 25.8931L50.77 24.9675C50.9894 24.7358 51.0594 24.5912 51.0329 24.4314C51.0051 24.2643 50.8704 24.1811 50.6916 24.2105C50.5129 24.24 50.3886 24.3662 50.2191 24.6405L49.6524 24.3083C49.8766 23.8921 50.1247 23.6438 50.6418 23.5581C51.2238 23.4617 51.681 23.7418 51.7652 24.2515C51.836 24.6778 51.6561 24.9379 51.3034 25.2854L50.8998 25.6804L51.9989 25.4984L52.0983 26.0994L49.9908 26.4485L49.8993 25.8931Z" fill="white"/>
<path d="M54.2282 24.5855C54.2024 24.1582 53.9802 23.8585 53.6839 23.8761C53.3872 23.8941 53.2092 24.2061 53.2351 24.6447C53.2609 25.076 53.4794 25.3718 53.7799 25.3539C54.0799 25.336 54.2542 25.0205 54.2282 24.5855ZM52.4851 24.6896C52.4395 23.9275 52.8861 23.2595 53.652 23.2139C54.4181 23.168 54.933 23.7708 54.9791 24.5409C55.0245 25.3027 54.5816 25.9706 53.8113 26.0165C53.0413 26.0626 52.5307 25.4596 52.4851 24.6896Z" fill="white"/>
<path d="M57.3424 24.6292C57.3642 24.2018 57.1761 23.8795 56.88 23.8643C56.5833 23.8489 56.3716 24.139 56.3489 24.5779C56.3269 25.0089 56.5108 25.3273 56.8112 25.3425C57.1109 25.3583 57.3197 25.064 57.3424 24.6292ZM55.5982 24.539C55.6377 23.7767 56.1563 23.1628 56.9219 23.2024C57.6874 23.2422 58.1328 23.8983 58.0924 24.6681C58.0529 25.43 57.5387 26.0441 56.7687 26.0043C55.9989 25.9644 55.5586 25.3085 55.5982 24.539Z" fill="white"/>
<path d="M58.491 25.5058L59.6067 24.8986C59.8874 24.747 59.9987 24.6317 60.0236 24.4718C60.0494 24.3039 59.9475 24.1831 59.768 24.1552C59.5893 24.1274 59.4324 24.2087 59.1864 24.4163L58.7512 23.9239C59.0938 23.5987 59.4068 23.4401 59.9255 23.5203C60.508 23.6104 60.8544 24.019 60.7753 24.5296C60.7094 24.9561 60.4573 25.1471 60.0134 25.367L59.507 25.6161L60.6082 25.7865L60.5145 26.3883L58.4046 26.0621L58.491 25.5058Z" fill="white"/>
<path d="M24.287 23.6236C25.0067 23.6236 25.7442 23.6497 26.4913 23.6892C34.2047 16.9514 44.2966 12.8679 55.3431 12.8679C67.9556 12.8679 79.3231 18.1912 87.3272 26.7112C88.0229 23.8954 85.9064 20.1864 80.8465 16.8732C73.4865 12.1559 64.7342 9.42033 55.3431 9.42033C42.0253 9.42033 29.9948 14.9235 21.3948 23.7771C22.0021 23.7066 22.6163 23.659 23.2361 23.639C23.5881 23.6286 23.9345 23.6236 24.287 23.6236Z" fill="white"/>
<path d="M54.908 42.197C52.6974 42.3783 50.7976 43.9056 50.6642 45.6084C50.5309 47.3111 52.2149 48.5443 54.4255 48.363C56.6358 48.1816 58.5357 46.6544 58.6692 44.9516C58.8022 43.249 57.1184 42.0156 54.908 42.197Z" fill="white"/>
<path d="M75.8499 42.0176C80.8271 41.8142 85.1234 40.5056 88.0488 38.3516C90.1952 36.7708 91.6086 34.7368 92.0105 32.3441C92.4771 29.5656 91.5181 26.6905 89.4964 24.037C89.9671 25.3306 90.1206 26.6506 89.9 27.9467C89.1225 32.5126 83.929 35.4817 77.1908 35.7385C60.6647 36.3498 37.7653 26.6159 23.3451 27.0436C18.9754 27.1836 15.0056 28.807 12.3882 31.491C11.0431 32.8703 10.0527 34.5268 9.55453 36.407C9.15299 37.9239 9.10399 39.4591 9.36213 40.9551C9.82206 43.7706 12.4026 46.3016 15.9933 47.1146C17.488 47.4529 18.1157 47.4654 19.4769 47.177C17.3125 45.6685 16.0138 43.6051 16.1266 41.3927C16.2646 38.6913 18.4721 36.4367 21.6733 35.2539C23.0188 34.757 24.539 34.4485 26.1571 34.3766C40.7461 33.8687 59.2223 42.7047 75.8499 42.0176Z" fill="white"/>
<path d="M97.4604 45.0752L98.5532 39.6899C98.7497 38.8774 99.1909 37.8033 100.551 37.3589L100.628 36.9647L96.8453 37.3986C93.4082 37.787 91.0744 41.1969 90.4313 44.3744H90.4296L90.1163 45.9184L87.8632 46.1772L87.189 49.5004L89.4421 49.2419L87.0654 60.955C86.9735 61.479 86.9211 61.9739 86.9032 62.4408C86.1718 63.2344 85.3225 63.8787 84.4594 64.2319C82.3592 65.0917 80.9843 63.919 81.3884 61.6127V61.6125L81.3841 61.6128L83.1315 53.0009C83.3398 51.8873 83.2309 50.8642 82.9495 49.9863C82.4976 48.5759 81.5093 47.5379 80.1578 47.0606C79.3588 46.7784 78.4386 46.6862 77.4255 46.8356H77.4247H77.4252C74.8127 47.2214 72.7196 48.641 71.3054 50.5541C71.0528 50.8957 70.819 51.2503 70.611 51.6206C70.5011 50.5638 70.1591 49.6443 69.418 49.0809C68.8148 48.622 68.0851 48.4481 67.4958 48.5134L62.913 49.0393L62.8327 49.434C62.9304 49.4224 63.0202 49.42 63.1028 49.4263C63.3506 49.4451 63.5322 49.5407 63.6635 49.6872C63.7511 49.7847 63.8161 49.9047 63.8632 50.0392C64.0994 50.7125 63.8883 51.7524 63.8008 52.1833L63.8009 52.1832L61.2225 64.8908C60.3997 65.9366 59.3614 66.801 58.3051 67.2336C56.2052 68.0934 54.8301 66.9205 55.2341 64.6142L55.2296 64.6143L56.757 57.0872V57.0869C57.2348 54.7323 57.4842 51.8532 55.8811 50.6342C55.2781 50.1758 54.5488 50.0016 53.9594 50.0667H53.9582L49.3758 50.5925L49.2957 50.9874C50.8452 50.8005 50.4124 53.0032 50.2682 53.7147L47.8871 65.4504L47.8915 65.4499C47.8362 65.7652 47.7974 66.0684 47.7691 66.3634C46.9371 67.4434 45.8754 68.3411 44.7935 68.7841C42.6932 69.6439 41.3138 68.4714 41.7181 66.1649L44.8548 50.7054C45.3325 48.3509 45.5823 45.4718 43.979 44.2525C43.3755 43.7936 42.6453 43.6198 42.0561 43.6853L37.4735 44.2108L37.3936 44.6059C38.9344 44.42 38.5154 46.5957 38.3686 47.3197L38.3616 47.3551C38.3626 47.3491 38.3645 47.3407 38.3657 47.3346L34.3753 67.0009C33.8636 69.9215 34.5279 71.9717 36.0561 72.9963C37.32 73.8437 39.1777 73.9897 41.4637 73.3386C43.9809 72.6215 46.151 70.9173 47.8693 68.7788C48.1263 69.9724 48.7103 70.8707 49.5677 71.4457C50.8317 72.2932 52.6892 72.4394 54.9754 71.7882C57.1059 71.1813 58.9851 69.8636 60.5554 68.1777L60.1385 70.2329L67.4825 69.3902L70.4046 54.9884C70.8813 53.1493 72.3814 51.6647 73.5545 51.1849C75.1655 50.5261 76.3027 51.412 75.9213 53.1824L74.0412 62.4489C73.5296 65.3695 74.1939 67.4197 75.7219 68.4442C76.9861 69.2917 78.8436 69.4378 81.1298 68.7865C83.4622 68.1221 85.4956 66.6086 87.1491 64.6888L87.1489 64.6878C87.4437 65.6814 87.9883 66.4423 88.746 66.9504C90.0101 67.7977 91.8676 67.944 94.1538 67.2929C94.3554 67.2428 94.5707 67.1689 94.7916 67.0801C96.6725 66.326 99.0857 64.2278 99.2216 61.7465C98.2945 62.7304 97.0568 62.973 96.4068 63.0106C96.3788 63.0128 96.352 63.0124 96.3244 63.0138C96.2873 63.0157 96.2516 63.0147 96.2156 63.0147C94.8669 63.021 94.0974 61.9172 94.4124 60.1186L94.4126 60.1185L94.4081 60.119L96.7862 48.3989L100.123 48.0158L100.797 44.6924L97.4604 45.0752Z" fill="white"/>
<path d="M95.0359 70.583C94.516 70.7292 94.0068 70.8382 93.5059 70.9231C87.5456 86.1818 72.687 97.0201 55.3428 97.0201C40.8948 97.0201 28.1706 89.499 20.8791 78.1664L16.9601 78.6161C24.6976 91.7584 38.9892 100.58 55.343 100.58C75.315 100.58 92.215 87.4262 97.8524 69.3096C97.2594 69.6884 96.6534 70.0036 96.0596 70.2416C95.6954 70.3877 95.3603 70.4995 95.0359 70.583Z" fill="white"/>
<path d="M27.973 53.0484C27.973 53.0484 30.0128 42.9379 30.0859 42.636L30.0861 42.635C30.2829 41.8224 30.7239 40.7485 32.0834 40.3043L32.1607 39.9097L28.34 40.3482L28.3383 40.3505C24.9236 40.761 22.6031 44.1545 21.9624 47.3195L20.6297 53.8873L20.6277 53.8913L18.3604 54.1514L17.6859 57.4748L19.9535 57.2146L16.2911 75.2642L23.6352 74.4213L27.2974 56.3717L33.5772 55.6513L34.2514 52.3279L27.973 53.0484Z" fill="white"/>
<path d="M30.3116 78.1989C30.9311 78.7608 30.9844 79.7242 30.4162 80.3502C29.8546 80.9686 28.8761 81.024 28.2499 80.455C27.623 79.887 27.5843 78.9225 28.1525 78.2962C28.7216 77.6699 29.6854 77.6308 30.3116 78.1989Z" fill="white"/>
<path d="M37.7893 82.5983C36.8916 82.1008 35.6733 82.2236 34.7867 83.8246C34.0374 85.1754 34.208 86.3949 35.3742 87.0407C36.1326 87.4623 37.0198 87.4326 37.548 86.6979L36.4286 86.0779L37.0027 85.0409L39.7412 86.5593L39.6343 86.7541C38.5564 88.6964 36.6348 89.2399 34.6175 88.1221C33.461 87.4807 32.9202 86.6242 32.6842 85.8277C32.4572 85.0376 32.4348 84.009 33.0499 82.8988C33.768 81.603 34.757 81.1724 35.332 81.0068C36.5925 80.6534 37.6075 81.07 38.2084 81.4034C38.8932 81.7836 39.5134 82.345 39.7567 83.3024L40.1366 82.6176L41.0892 83.1455L39.8583 85.3663L38.9058 84.8374C38.934 84.2854 38.816 83.1672 37.7893 82.5983Z" fill="white"/>
<path d="M44.6103 87.3762L45.1015 87.5059C45.5206 87.6179 46.3664 87.8528 46.6001 86.9736C46.8309 86.1053 45.9717 85.8763 45.5317 85.7602L45.0718 85.6375L44.6103 87.3762ZM44.5442 90.6754L44.2371 91.8309L40.9959 90.9703L41.303 89.8148L42.0596 90.0156L43.3438 85.1786L42.5872 84.978L42.8802 83.8732L46.2342 84.7642C47.3694 85.0656 48.9059 85.6274 48.4147 87.4774C48.3413 87.7538 47.9994 88.8782 46.7604 88.8447L47.3057 91.4087L48.1129 91.6224L47.8064 92.7779L45.8226 92.2516L45.048 88.6971L44.3113 88.5012L43.7876 90.474L44.5442 90.6754Z" fill="white"/>
<path d="M55.2315 90.8838L56.5521 90.9354L56.4587 93.3347L50.3074 93.094L50.3549 91.8994L51.1368 91.9295L51.3326 86.9313L50.5507 86.901L50.5953 85.7597L56.7457 86.0004L56.6567 88.2724L55.3362 88.2208L55.3799 87.0906L53.1184 87.001L53.0481 88.7979L54.9184 88.8711L54.8716 90.0759L53.0013 90.0029L52.9226 92L55.184 92.0883L55.2315 90.8838Z" fill="white"/>
<path d="M61.3566 91.6172L62.1467 91.4648L62.3731 92.6395L59.4952 93.1934L59.2681 92.0202L60.0687 91.8662L59.1213 86.951L58.3215 87.1057L58.1057 85.9832L60.9211 85.4413L64.4905 89.5911L63.756 86.0584L62.9657 86.2102L62.7499 85.0884L65.6278 84.5332L65.8438 85.6555L65.044 85.8104L66.217 91.8981L64.6692 92.1965L60.4946 87.366L61.3566 91.6172Z" fill="white"/>
<path d="M72.9238 88.0279L73.6241 87.7018L70.6275 86.1311L71.6735 83.0883L70.9444 83.4274L70.4614 82.3909L73.2152 81.1086L73.6975 82.1442L73.1411 82.4039L72.2078 85.1619L75.504 86.8253L76.214 86.4948L76.7193 87.5782L73.4289 89.1115L72.9238 88.0279ZM69.3937 89.6723L70.103 89.3411L67.9893 84.8043L67.2801 85.1344L66.7971 84.0986L69.8381 82.6809L70.3204 83.7178L69.6103 84.0491L71.7248 88.5858L72.4348 88.2553L72.9393 89.3396L69.8982 90.7562L69.3937 89.6723Z" fill="white"/>
<path d="M77.3929 85.577L78.0332 85.1266L75.1583 81.0311L74.5174 81.4815L73.8615 80.5462L76.6057 78.6198L77.2623 79.555L76.6214 80.0042L79.4963 84.0999L80.1372 83.6495L80.8235 84.6281L78.0792 86.5546L77.3929 85.577Z" fill="white"/>
<path d="M80.8324 77.3926C81.432 76.8096 82.3964 76.8174 82.9863 77.4254C83.5687 78.0253 83.5604 79.0049 82.9528 79.5938C82.3452 80.1826 81.3808 80.1606 80.7915 79.5534C80.2027 78.9463 80.2248 77.9817 80.8324 77.3926Z" fill="white"/>
</svg>
