<svg width="40" height="40" viewBox="0 0 40 40" fill="none" xmlns="http://www.w3.org/2000/svg">
<path d="M38.75 19.9999C38.7506 20.4158 38.6459 20.825 38.4457 21.1895C38.2454 21.554 37.9561 21.8618 37.6047 22.0843L23.825 30.8593C23.45 31.099 23.0176 31.2337 22.5728 31.2492C22.128 31.2648 21.6872 31.1606 21.2964 30.9477C20.9056 30.7347 20.5791 30.4207 20.3511 30.0385C20.1231 29.6563 20.0018 29.2199 20 28.7749V22.9468L7.575 30.8593C7.20003 31.099 6.76757 31.2337 6.32279 31.2492C5.878 31.2648 5.4372 31.1606 5.0464 30.9477C4.6556 30.7347 4.32913 30.4207 4.10109 30.0385C3.87306 29.6563 3.7518 29.2199 3.75 28.7749V11.2249C3.7518 10.7798 3.87306 10.3434 4.10109 9.96122C4.32913 9.57902 4.6556 9.26505 5.0464 9.05209C5.4372 8.83913 5.878 8.73499 6.32279 8.75054C6.76757 8.76609 7.20003 8.90077 7.575 9.14051L20 17.053V11.2249C20.0018 10.7798 20.1231 10.3434 20.3511 9.96122C20.5791 9.57902 20.9056 9.26505 21.2964 9.05209C21.6872 8.83913 22.128 8.73499 22.5728 8.75054C23.0176 8.76609 23.45 8.90077 23.825 9.14051L37.6047 17.9155C37.9561 18.138 38.2454 18.4458 38.4457 18.8103C38.6459 19.1747 38.7506 19.584 38.75 19.9999Z" fill="#2C1B1B"/>
</svg>
