<svg width="74" height="34" viewBox="0 0 74 34" fill="none" xmlns="http://www.w3.org/2000/svg">
<path d="M73.3711 3.89998C72.7625 4.83541 72.3717 5.93544 71.5904 6.57158C60.7816 15.3774 49.9374 24.1434 39.0583 32.8692C37.2102 34.3659 35.8352 34.3659 34.0018 32.8692C23.133 24.1284 12.2789 15.3701 1.43984 6.59417C1.06345 6.31835 0.746327 5.97006 0.507132 5.57013C0.267936 5.17049 0.111523 4.72685 0.047104 4.26589C-0.0173152 3.80492 0.0115545 3.33575 0.132035 2.88593C0.252516 2.43641 0.462164 2.01505 0.748622 1.64739C2.08597 0.0159686 4.05442 -0.0365614 6.06045 1.5799C12.7873 6.99322 19.5042 12.4139 26.2109 17.8422C29.2162 20.2667 32.2214 22.669 35.2267 25.1536C36.1884 25.9617 36.8343 25.9993 37.8487 25.1536C47.4857 17.3058 57.1477 9.49024 66.8347 1.70725C68.8856 0.0532359 70.5913 -0.111384 71.9885 1.35543C72.5415 2.1506 73.0053 3.00388 73.3711 3.89998Z" fill="white"/>
</svg>
