<svg width="60" height="60" viewBox="0 0 60 60" fill="none" xmlns="http://www.w3.org/2000/svg">
<rect width="60" height="60" rx="10" fill="white"/>
<rect width="60" height="60" rx="10" fill="url(#paint0_linear_2017_137)"/>
<rect width="60" height="60" rx="10" fill="url(#paint1_linear_2017_137)"/>
<path d="M45 27.1227C42.2476 27.1293 39.5627 26.2709 37.3247 24.669V35.8418C37.3239 37.9111 36.6914 39.9309 35.5117 41.631C34.332 43.3312 32.6613 44.6307 30.7231 45.3558C28.7849 46.0808 26.6715 46.1969 24.6655 45.6885C22.6595 45.1801 20.8566 44.0714 19.4978 42.5107C18.1389 40.95 17.289 39.0116 17.0616 36.9548C16.8341 34.898 17.2401 32.8208 18.2251 31.001C19.2102 29.1811 20.7273 27.7053 22.5738 26.771C24.4202 25.8366 26.5079 25.4882 28.5577 25.7724V31.3919C27.6197 31.0969 26.6125 31.1058 25.6799 31.4173C24.7472 31.7288 23.9369 32.3271 23.3645 33.1266C22.7922 33.9262 22.4871 34.8861 22.4929 35.8694C22.4987 36.8526 22.8151 37.8089 23.3968 38.6016C23.9785 39.3944 24.7958 39.983 25.7321 40.2836C26.6683 40.5841 27.6756 40.5811 28.6101 40.2751C29.5445 39.969 30.3584 39.3755 30.9354 38.5793C31.5124 37.7832 31.8231 36.825 31.8231 35.8418V14H37.3247C37.3208 14.4646 37.3598 14.9285 37.4409 15.386C37.6321 16.4072 38.0296 17.3786 38.6091 18.2409C39.1886 19.1032 39.938 19.8382 40.8113 20.401C42.0538 21.2225 43.5105 21.6604 45 21.6601V27.1227Z" fill="white"/>
<defs>
<linearGradient id="paint0_linear_2017_137" x1="2.25623" y1="32.5404" x2="57.5152" y2="33.608" gradientUnits="userSpaceOnUse">
<stop stop-color="#EA2815"/>
<stop offset="1" stop-color="#D30B54"/>
</linearGradient>
<linearGradient id="paint1_linear_2017_137" x1="30" y1="0" x2="30" y2="60" gradientUnits="userSpaceOnUse">
<stop stop-color="#EB4016"/>
<stop offset="1" stop-color="#9D2406"/>
</linearGradient>
</defs>
</svg>
