<svg width="60" height="60" viewBox="0 0 60 60" fill="none" xmlns="http://www.w3.org/2000/svg">
<rect width="60" height="60" rx="10" fill="white"/>
<rect width="60" height="60" rx="10" fill="url(#paint0_linear_2017_140)"/>
<rect width="60" height="60" rx="10" fill="url(#paint1_linear_2017_140)"/>
<path d="M30 16C34.2308 16 37.4701 15.9989 39.9141 16.21C42.3339 16.4189 44.183 16.8463 45.4893 17.8613C46.8489 18.918 47.4432 20.4637 47.7246 22.4316C48.0027 24.3767 48 26.9395 48 30.2109C48 33.4821 48.0026 36.0442 47.7246 37.9893C47.4432 39.9572 46.8489 41.5029 45.4893 42.5596C44.183 43.5746 42.3339 44.002 39.9141 44.2109C37.4701 44.422 34.2308 44.4209 30 44.4209C25.7692 44.4209 22.5299 44.422 20.0859 44.2109C17.666 44.002 15.817 43.5746 14.5107 42.5596C13.1511 41.5029 12.5568 39.9572 12.2754 37.9893C11.9974 36.0442 12 33.4821 12 30.2109C12 26.9395 11.9973 24.3767 12.2754 22.4316C12.5568 20.4637 13.1511 18.918 14.5107 17.8613C15.817 16.8463 17.6661 16.4189 20.0859 16.21C22.5299 15.9989 25.7692 16 30 16ZM26.2227 36.8164L37.5566 30.2109L26.2227 23.6045V36.8164Z" fill="white"/>
<defs>
<linearGradient id="paint0_linear_2017_140" x1="2.25623" y1="32.5404" x2="57.5152" y2="33.608" gradientUnits="userSpaceOnUse">
<stop stop-color="#EA2815"/>
<stop offset="1" stop-color="#D30B54"/>
</linearGradient>
<linearGradient id="paint1_linear_2017_140" x1="30" y1="0" x2="30" y2="60" gradientUnits="userSpaceOnUse">
<stop stop-color="#EB4016"/>
<stop offset="1" stop-color="#9D2406"/>
</linearGradient>
</defs>
</svg>
